<svg width="625" height="227" viewBox="0 0 625 227" fill="none" xmlns="http://www.w3.org/2000/svg">
<g clip-path="url(#clip0_710_16641)" filter="url(#filter0_d_710_16641)">
<path fill-rule="evenodd" clip-rule="evenodd" d="M270.216 35.9386C257.943 38.9545 249.44 49.7804 249.404 62.4504C249.368 77.0367 257.943 89.991 274.948 101.1C281.174 105.146 294.728 111.569 297.077 111.569C299.425 111.569 313.085 105.074 319.311 100.993C324.969 97.3013 328.206 94.6405 332.509 90.2029C340.799 81.6139 344.747 72.6353 344.747 62.4142C344.71 49.6374 336.386 39.132 323.758 35.9386C321.196 35.2993 320.094 35.1942 316.286 35.3717C313.334 35.513 311.128 35.7973 309.668 36.2592C306.182 37.3587 301.914 39.773 299.423 42.0806L297.075 44.2106L294.691 42.0461C291.81 39.4198 286.367 36.6521 282.595 35.8352C279.218 35.0873 273.419 35.1235 270.216 35.9386ZM356.999 55.1976C358.385 53.4183 359.523 52.5304 361.372 51.8895C365.568 50.3953 370.867 52.6721 372.893 56.8335C373.283 57.6869 374.742 62.3114 376.129 67.0792C380.753 83.1602 381.783 88.0696 381.783 93.6546C381.783 100.022 380.931 103.296 377.232 111.297C369.479 128.124 368.022 131.966 367.026 138.228C366.243 142.889 365.568 144.205 363.897 144.205L336.943 143.459C336.303 142.818 336.232 142.426 336.373 141.039C336.481 140.151 336.765 137.66 336.978 135.561C337.334 132.573 337.334 130.261 337.014 125.423C336.41 115.925 336.481 112.189 337.334 109.77C338.33 106.96 341.673 101.233 346.152 94.7567C350.847 87.9625 352.552 86.147 355.042 85.2936L356.892 84.6182L356.714 82.6609C356.65 82.0104 356.478 79.7289 356.258 76.7878L356.257 76.7821C356.117 74.906 355.956 72.7619 355.79 70.6015C354.972 59.1466 355.115 57.6886 356.999 55.1976ZM232.411 51.8895C234.26 52.5304 235.398 53.4183 236.785 55.1976C238.669 57.6886 238.812 59.1466 237.993 70.6015C237.827 72.7615 237.667 74.9053 237.526 76.7812C237.305 79.7256 237.134 82.0099 237.07 82.6609L236.892 84.6182L238.741 85.2936C241.231 86.147 242.937 87.9625 247.632 94.7567C252.111 101.233 255.454 106.96 256.45 109.77C257.303 112.189 257.374 115.925 256.769 125.423C256.45 130.261 256.45 132.573 256.806 135.561C257.018 137.66 257.303 140.151 257.41 141.039C257.552 142.426 257.481 142.818 256.84 143.459L229.887 144.205C228.215 144.205 227.54 142.889 226.758 138.228C225.762 131.966 224.304 128.124 216.552 111.297C212.853 103.296 212 100.022 212 93.6546C212 88.0696 213.031 83.1602 217.655 67.0792C219.041 62.3114 220.5 57.6869 220.891 56.8335C222.916 52.6721 228.215 50.3953 232.411 51.8895Z" fill="#7CD1E3"/>
<path d="M112.926 153.452L105.767 181.64L99.3916 153.452H98.8882H88.7092L81.6622 181.64L74.9508 153.452H61.6398L74.4475 194H87.0873L93.7428 171.069L100.231 194H112.87L126.237 153.452H112.926ZM151.251 194H164.506L150.579 153.452H137.38L124.013 194H137.268L139.338 184.94H149.069L151.251 194ZM141.351 175.991L143.756 165.253H144.371L146.944 175.991H141.351ZM189.482 153.452L182.323 181.64L175.611 153.452H162.3L175.667 194H188.866L202.793 153.452H189.482ZM237.881 162.4V153.452H207.288V194H237.881V185.051H218.25V178.172H234.861V169.224H218.25V162.4H237.881ZM283.91 173.362C286.37 171.349 287.769 168.441 287.769 164.302C287.769 157.702 283.686 153.452 272.668 153.452H258.574V194H276.135C286.203 194 290.118 189.19 290.118 182.591C290.118 177.725 287.601 174.928 283.91 173.362ZM276.918 165.197C276.918 169.335 274.458 170.174 271.997 170.23L269.536 170.286V160.611H271.326C273.842 160.611 276.918 161.226 276.918 165.197ZM274.793 186.841H269.536V177.11H271.885C275.576 177.054 279.267 178.004 279.267 182.423C279.267 186.282 275.8 186.841 274.793 186.841ZM317.177 153.452V178.228C317.177 185.275 315.388 186.45 312.368 186.45C308.788 186.45 307.222 184.268 307.222 177.948V153.452H296.26V177.948C296.26 188.91 301.909 194.839 312.368 194.839C321.316 194.839 328.139 190.365 328.139 178.228V153.452H317.177ZM358.78 164.302L360.122 154.906C357.437 153.899 352.907 152.613 348.265 152.613C342.113 152.613 333.835 154.906 333.835 164.526C333.835 171.964 338.757 174.537 347.706 178.396C350.446 179.57 352.572 180.465 352.572 182.535C352.572 184.492 350.558 184.995 348.377 184.995C345.413 184.995 341.386 184.101 335.457 181.919L333.724 191.763C340.267 194.559 345.469 194.783 347.874 194.783C358.5 194.783 363.645 190.309 363.645 182.423C363.645 175.264 359.451 171.852 350.782 168.608C346.755 167.098 343.903 166.371 343.903 164.526C343.903 162.792 346.363 161.953 349.104 161.953C352.404 161.953 355.983 163.183 358.78 164.302ZM380.191 153.452H369.229V194H380.191V153.452ZM415.466 153.452V182.535L406.517 153.452H399.247H388.285V194H399.247V164.693L409.426 194H415.466H426.428V153.452H415.466ZM465.145 162.4V153.452H434.552V194H465.145V185.051H445.514V178.172H462.125V169.224H445.514V162.4H465.145ZM494.395 164.302L495.738 154.906C493.053 153.899 488.523 152.613 483.881 152.613C477.729 152.613 469.451 154.906 469.451 164.526C469.451 171.964 474.373 174.537 483.322 178.396C486.062 179.57 488.187 180.465 488.187 182.535C488.187 184.492 486.174 184.995 483.993 184.995C481.029 184.995 477.002 184.101 471.073 181.919L469.339 191.763C475.883 194.559 481.084 194.783 483.489 194.783C494.116 194.783 499.261 190.309 499.261 182.423C499.261 175.264 495.067 171.852 486.398 168.608C482.371 167.098 479.518 166.371 479.518 164.526C479.518 162.792 481.979 161.953 484.72 161.953C488.02 161.953 491.599 163.183 494.395 164.302ZM527.385 164.302L528.727 154.906C526.042 153.899 521.512 152.613 516.87 152.613C510.718 152.613 502.44 154.906 502.44 164.526C502.44 171.964 507.362 174.537 516.311 178.396C519.051 179.57 521.176 180.465 521.176 182.535C521.176 184.492 519.163 184.995 516.982 184.995C514.018 184.995 509.991 184.101 504.062 181.919L502.329 191.763C508.872 194.559 514.074 194.783 516.478 194.783C527.105 194.783 532.25 190.309 532.25 182.423C532.25 175.264 528.056 171.852 519.387 168.608C515.36 167.098 512.508 166.371 512.508 164.526C512.508 162.792 514.968 161.953 517.709 161.953C521.009 161.953 524.588 163.183 527.385 164.302Z" fill="#7CD1E3"/>
</g>
<defs>
<filter id="filter0_d_710_16641" x="-4" y="0" width="633" height="235" filterUnits="userSpaceOnUse" color-interpolation-filters="sRGB">
<feFlood flood-opacity="0" result="BackgroundImageFix"/>
<feColorMatrix in="SourceAlpha" type="matrix" values="0 0 0 0 0 0 0 0 0 0 0 0 0 0 0 0 0 0 127 0" result="hardAlpha"/>
<feOffset dy="4"/>
<feGaussianBlur stdDeviation="2"/>
<feComposite in2="hardAlpha" operator="out"/>
<feColorMatrix type="matrix" values="0 0 0 0 0 0 0 0 0 0 0 0 0 0 0 0 0 0 0.25 0"/>
<feBlend mode="normal" in2="BackgroundImageFix" result="effect1_dropShadow_710_16641"/>
<feBlend mode="normal" in="SourceGraphic" in2="effect1_dropShadow_710_16641" result="shape"/>
</filter>
<clipPath id="clip0_710_16641">
<rect width="625" height="227" fill="white"/>
</clipPath>
</defs>
</svg>
